<?xml version="1.0" encoding="UTF-8"?>
<!-- Generator: Adobe Illustrator 24.2.1, SVG Export Plug-In . SVG Version: 6.00 Build 0)  -->
<svg xmlns="http://www.w3.org/2000/svg" xmlns:xlink="http://www.w3.org/1999/xlink" version="1.1" id="Layer_1" x="0px" y="0px" viewBox="0 0 1080 1080" style="enable-background:new 0 0 1080 1080;" xml:space="preserve">
<style type="text/css">
	.st0{fill:none;stroke:#000000;stroke-width:45;stroke-linecap:round;stroke-linejoin:round;stroke-miterlimit:10;}
</style>
<g>
	<g>
		<path class="st0" d="M767.34,82.87H312.66c-75.29,0-136.89,61.6-136.89,136.89v640.47c0,75.29,61.6,136.89,136.89,136.89h454.68    c75.29,0,136.89-61.6,136.89-136.89V219.77C904.23,144.48,842.63,82.87,767.34,82.87z"></path>
		<line class="st0" x1="312.66" y1="82.87" x2="312.66" y2="997.13"></line>
		<line class="st0" x1="767.34" y1="82.87" x2="767.34" y2="997.13"></line>
		<line class="st0" x1="312.66" y1="722.69" x2="175.77" y2="722.69"></line>
		<line class="st0" x1="312.66" y1="846.33" x2="175.77" y2="846.33"></line>
		<line class="st0" x1="312.66" y1="525.12" x2="767.34" y2="525.12"></line>
		<line class="st0" x1="312.66" y1="599.57" x2="175.77" y2="599.57"></line>
		<line class="st0" x1="312.66" y1="357.88" x2="175.77" y2="357.88"></line>
		<line class="st0" x1="312.66" y1="476.44" x2="175.77" y2="476.44"></line>
		<line class="st0" x1="312.66" y1="239.32" x2="175.77" y2="239.32"></line>
		<line class="st0" x1="904.23" y1="722.69" x2="767.34" y2="722.69"></line>
		<line class="st0" x1="904.23" y1="846.33" x2="767.34" y2="846.33"></line>
		<line class="st0" x1="904.23" y1="599.57" x2="767.34" y2="599.57"></line>
		<line class="st0" x1="904.23" y1="357.88" x2="767.34" y2="357.88"></line>
		<line class="st0" x1="904.23" y1="476.44" x2="767.34" y2="476.44"></line>
		<line class="st0" x1="904.23" y1="239.32" x2="767.34" y2="239.32"></line>
	</g>
</g>
</svg>
