<?xml version="1.0" encoding="UTF-8"?>
<!-- Generator: Adobe Illustrator 24.2.1, SVG Export Plug-In . SVG Version: 6.00 Build 0)  -->
<svg xmlns="http://www.w3.org/2000/svg" xmlns:xlink="http://www.w3.org/1999/xlink" version="1.1" id="Layer_1" x="0px" y="0px" viewBox="0 0 1080 1080" style="enable-background:new 0 0 1080 1080;" xml:space="preserve">
<g>
	<path d="M1028.77,458.5c-0.36-1.84-0.96-3.6-1.79-5.27c-0.18-0.36-0.43-0.67-0.63-1.02c-0.75-1.3-1.63-2.5-2.65-3.62   c-0.38-0.42-0.76-0.82-1.18-1.21c-0.32-0.3-0.58-0.67-0.93-0.95c-0.99-0.81-2.08-1.45-3.18-2.05c-0.17-0.09-0.28-0.24-0.45-0.33   L754.71,308.67l-62.58-142.99c-3.93-8.97-13.59-13.98-23.21-11.99l-395.89,81.92c-6.12,1.26-11.35,5.23-14.22,10.78   c-2.87,5.56-3.08,12.11-0.58,17.85l39.11,89.35L67.36,400.69c-0.27,0.06-0.5,0.22-0.77,0.29c-1.37,0.34-2.67,0.86-3.96,1.48   c-0.52,0.25-1.08,0.41-1.57,0.7c-0.11,0.06-0.24,0.09-0.34,0.15c-1.59,0.97-3,2.14-4.25,3.46c-0.21,0.22-0.34,0.49-0.53,0.72   c-1.09,1.25-2.03,2.6-2.78,4.06c-0.29,0.57-0.48,1.17-0.72,1.77c-0.51,1.25-0.91,2.52-1.17,3.86c-0.07,0.35-0.25,0.65-0.3,1.01   c-0.05,0.39,0.05,0.77,0.02,1.16c-0.04,0.56-0.21,1.09-0.21,1.66V739.1c0,7.77,4.35,14.89,11.26,18.45l324.53,166.9   c0.21,0.11,0.45,0.15,0.67,0.25c1.07,0.5,2.17,0.91,3.31,1.23c0.39,0.11,0.78,0.22,1.17,0.31c1.42,0.3,2.87,0.51,4.33,0.51   c1.38,0,2.78-0.14,4.16-0.42l612.42-125.41c9.65-1.98,16.58-10.47,16.58-20.33V462.51c0-0.9-0.18-1.77-0.3-2.65   C1028.86,459.4,1028.86,458.95,1028.77,458.5z M306.51,271.05l354.36-73.33l0.01,0.02l0.07-0.02l88.95,203.39l-0.01,0l0.01,0.02   l-354.36,73.33l-0.01-0.01l-0.07,0.01l-88.95-203.39l0.01,0L306.51,271.05z M375.31,872L92.27,726.43V455.01l177.14,91.1   l105.89,54.46V872z M399.04,566.13L216.3,472.15l-82.89-42.63l180.93-37.05l49.91,114.03c3.36,7.66,10.89,12.43,19,12.43   c1.39,0,2.8-0.14,4.21-0.43l395.89-81.92c6.13-1.26,11.35-5.23,14.23-10.78c2.87-5.56,3.08-12.12,0.58-17.85l-17.1-39.06   L946.58,454L399.04,566.13z M987.73,763.66L416.79,880.57V604.85l570.94-116.92V763.66z"></path>
</g>
</svg>
